<mxfile host="www.draw.io" modified="2019-10-31T07:44:37.192Z" agent="Mozilla/5.0 (Windows NT 10.0; Win64; x64) AppleWebKit/537.36 (KHTML, like Gecko) Chrome/78.0.3904.70 Safari/537.36" etag="BVjsE40WFjQFpJTq6ydy" version="12.1.9" type="github" pages="1">
  <diagram name="Page-1" id="929967ad-93f9-6ef4-fab6-5d389245f69c">
    <mxGraphModel dx="768" dy="455" grid="1" gridSize="10" guides="1" tooltips="1" connect="1" arrows="1" fold="1" page="1" pageScale="1.5" pageWidth="1169" pageHeight="826" background="none" math="0" shadow="0">
      <root>
        <mxCell id="0" style=";html=1;"/>
        <mxCell id="1" style=";html=1;" parent="0"/>
        <mxCell id="1672d66443f91eb5-1" value="&lt;p style=&quot;margin: 0px ; margin-top: 4px ; margin-left: 10px ; text-align: left&quot;&gt;&lt;b&gt;req&lt;/b&gt;&amp;nbsp;[package] HSUVRequirements[HSUV Specification]&lt;/p&gt;" style="html=1;strokeWidth=1;shape=mxgraph.sysml.package;html=1;overflow=fill;whiteSpace=wrap;fillColor=none;gradientColor=none;fontSize=12;align=center;labelX=327.64;" parent="1" vertex="1">
          <mxGeometry x="190" y="250" width="1120" height="820" as="geometry"/>
        </mxCell>
        <mxCell id="1672d66443f91eb5-2" value="Asiakas" style="shape=folder;tabWidth=80;tabHeight=20;tabPosition=left;strokeWidth=1;html=1;whiteSpace=wrap;align=center;fillColor=#ffffff;fontSize=12;strokeColor=#000000;fontStyle=1" parent="1" vertex="1">
          <mxGeometry x="420" y="360" width="160" height="90" as="geometry"/>
        </mxCell>
        <mxCell id="1672d66443f91eb5-3" value="Maksa tuotteesta ja odota ruoka kuljetus kotiin" style="shape=note;size=15;align=left;spacingLeft=10;html=1;whiteSpace=wrap;strokeColor=#000000;strokeWidth=1;fillColor=#ffffff;fontSize=12;" parent="1" vertex="1">
          <mxGeometry x="900" y="475" width="300" height="60" as="geometry"/>
        </mxCell>
        <mxCell id="1672d66443f91eb5-13" style="edgeStyle=orthogonalEdgeStyle;rounded=0;html=1;jettySize=auto;orthogonalLoop=1;endArrow=circlePlus;endFill=0;" parent="1" source="1672d66443f91eb5-4" target="1672d66443f91eb5-2" edge="1">
          <mxGeometry relative="1" as="geometry">
            <Array as="points">
              <mxPoint x="477" y="485"/>
              <mxPoint x="517" y="485"/>
            </Array>
          </mxGeometry>
        </mxCell>
        <mxCell id="1672d66443f91eb5-4" value="&lt;p&gt;&lt;span&gt;Elintarvikelähikaupan tietokone versio&lt;/span&gt;&lt;br&gt;&lt;/p&gt;" style="shape=rect;html=1;overflow=fill;whiteSpace=wrap;align=center;fontStyle=1" parent="1" vertex="1">
          <mxGeometry x="330" y="525" width="160" height="80" as="geometry"/>
        </mxCell>
        <mxCell id="1672d66443f91eb5-15" style="edgeStyle=orthogonalEdgeStyle;rounded=0;html=1;endArrow=circlePlus;endFill=0;jettySize=auto;orthogonalLoop=1;" parent="1" source="1672d66443f91eb5-5" target="1672d66443f91eb5-2" edge="1">
          <mxGeometry relative="1" as="geometry">
            <Array as="points">
              <mxPoint x="717" y="485"/>
              <mxPoint x="517" y="485"/>
            </Array>
          </mxGeometry>
        </mxCell>
        <mxCell id="1672d66443f91eb5-5" value="&lt;p&gt;Elintarvikelähikapuan mobiili versio&lt;/p&gt;" style="shape=rect;html=1;overflow=fill;whiteSpace=wrap;align=center;fontStyle=1" parent="1" vertex="1">
          <mxGeometry x="637" y="535" width="160" height="70" as="geometry"/>
        </mxCell>
        <mxCell id="xoyknp8DCNSH_hFzEkKQ-2" style="edgeStyle=orthogonalEdgeStyle;rounded=0;orthogonalLoop=1;jettySize=auto;html=1;exitX=0.5;exitY=1;exitDx=0;exitDy=0;" parent="1" source="1672d66443f91eb5-8" target="1672d66443f91eb5-11" edge="1">
          <mxGeometry relative="1" as="geometry">
            <mxPoint x="750" y="1070" as="targetPoint"/>
          </mxGeometry>
        </mxCell>
        <mxCell id="1672d66443f91eb5-8" value="&lt;p&gt;Ruoka&lt;/p&gt;&lt;p&gt;Leipä&lt;/p&gt;&lt;p&gt;kanamuna&lt;/p&gt;&lt;p&gt;jne.&lt;/p&gt;&lt;p&gt;&lt;br&gt;&lt;/p&gt;" style="shape=rect;html=1;overflow=fill;whiteSpace=wrap;align=center;fontStyle=1" parent="1" vertex="1">
          <mxGeometry x="490" y="760" width="170" height="110" as="geometry"/>
        </mxCell>
        <mxCell id="1672d66443f91eb5-22" style="edgeStyle=none;rounded=0;html=1;dashed=1;endArrow=none;endFill=0;jettySize=auto;orthogonalLoop=1;" parent="1" source="1672d66443f91eb5-9" target="1672d66443f91eb5-3" edge="1">
          <mxGeometry relative="1" as="geometry"/>
        </mxCell>
        <mxCell id="1672d66443f91eb5-9" value="&lt;p&gt;Kirjautu pankki tiliin&lt;/p&gt;" style="shape=rect;html=1;overflow=fill;whiteSpace=wrap;align=center;fontStyle=1" parent="1" vertex="1">
          <mxGeometry x="937" y="655" width="160" height="70" as="geometry"/>
        </mxCell>
        <mxCell id="1672d66443f91eb5-19" style="rounded=0;html=1;endArrow=none;endFill=0;jettySize=auto;orthogonalLoop=1;dashed=1;" parent="1" source="1672d66443f91eb5-11" target="1672d66443f91eb5-9" edge="1">
          <mxGeometry relative="1" as="geometry"/>
        </mxCell>
        <mxCell id="1672d66443f91eb5-11" value="&lt;b&gt;Asiakas tilaa ruoka netistä&lt;/b&gt;" style="shape=note;size=15;align=left;spacingLeft=10;html=1;whiteSpace=wrap;strokeColor=#000000;strokeWidth=1;fillColor=#ffffff;fontSize=12;" parent="1" vertex="1">
          <mxGeometry x="762" y="970" width="210" height="60" as="geometry"/>
        </mxCell>
        <mxCell id="1672d66443f91eb5-23" value="Elintarvikelähikauppa" style="text;strokeColor=none;fillColor=none;html=1;fontSize=24;fontStyle=1;verticalAlign=middle;align=center;" parent="1" vertex="1">
          <mxGeometry x="120" y="40" width="1510" height="40" as="geometry"/>
        </mxCell>
        <mxCell id="xoyknp8DCNSH_hFzEkKQ-1" value="Internet" style="rounded=1;whiteSpace=wrap;html=1;" parent="1" vertex="1">
          <mxGeometry x="540" y="630" width="120" height="60" as="geometry"/>
        </mxCell>
        <mxCell id="xoyknp8DCNSH_hFzEkKQ-3" value="" style="endArrow=classic;html=1;" parent="1" source="1672d66443f91eb5-4" edge="1">
          <mxGeometry width="50" height="50" relative="1" as="geometry">
            <mxPoint x="490" y="700" as="sourcePoint"/>
            <mxPoint x="540" y="650" as="targetPoint"/>
            <Array as="points">
              <mxPoint x="370" y="640"/>
              <mxPoint x="440" y="640"/>
            </Array>
          </mxGeometry>
        </mxCell>
        <mxCell id="xoyknp8DCNSH_hFzEkKQ-4" value="" style="endArrow=classic;html=1;" parent="1" source="1672d66443f91eb5-1" target="1672d66443f91eb5-1" edge="1">
          <mxGeometry width="50" height="50" relative="1" as="geometry">
            <mxPoint x="612" y="705" as="sourcePoint"/>
            <mxPoint x="662" y="655" as="targetPoint"/>
          </mxGeometry>
        </mxCell>
        <mxCell id="xoyknp8DCNSH_hFzEkKQ-5" value="" style="endArrow=classic;html=1;" parent="1" source="1672d66443f91eb5-5" edge="1">
          <mxGeometry width="50" height="50" relative="1" as="geometry">
            <mxPoint x="310" y="603" as="sourcePoint"/>
            <mxPoint x="662" y="660" as="targetPoint"/>
            <Array as="points"/>
          </mxGeometry>
        </mxCell>
        <mxCell id="xoyknp8DCNSH_hFzEkKQ-8" value="" style="endArrow=none;html=1;" parent="1" source="1672d66443f91eb5-8" target="xoyknp8DCNSH_hFzEkKQ-1" edge="1">
          <mxGeometry width="50" height="50" relative="1" as="geometry">
            <mxPoint x="570" y="750" as="sourcePoint"/>
            <mxPoint x="620" y="700" as="targetPoint"/>
          </mxGeometry>
        </mxCell>
      </root>
    </mxGraphModel>
  </diagram>
</mxfile>
